<svg aria-hidden="true" style="position: absolute; width: 0; height: 0; overflow: hidden;" version="1.1" xmlns="http://www.w3.org/2000/svg" xmlns:xlink="http://www.w3.org/1999/xlink">
<defs>
<symbol id="icon-facebook" viewBox="0 0 15 32">
<path d="M14.305 16.428h-4.068v15.267h-6.163v-15.267h-2.931v-5.366h2.931v-3.472c0-2.483 1.151-6.371 6.218-6.371l4.565 0.020v5.208h-3.312c-0.543 0-1.307 0.278-1.307 1.463v3.158h4.606l-0.538 5.361z"></path>
</symbol>
<symbol id="icon-github" viewBox="0 0 32 32">
<path d="M16 0c-8.788 0-16 7.212-16 16 0 7.499 5.262 14.312 12.25 16v-5.293c-0.692 0.152-1.33 0.156-2.034-0.052-0.946-0.279-1.714-0.909-2.284-1.869-0.364-0.613-1.008-1.278-1.68-1.23l-0.165-1.868c1.453-0.124 2.711 0.886 3.457 2.14 0.332 0.558 0.713 0.884 1.203 1.029 0.473 0.14 0.982 0.072 1.574-0.137 0.149-1.186 0.692-1.63 1.102-2.255v-0.001c-4.167-0.622-5.828-2.832-6.488-4.578-0.874-2.317-0.405-5.212 1.14-7.041 0.030-0.036 0.084-0.129 0.063-0.194-0.708-2.139 0.155-3.909 0.187-4.097 0.817 0.242 0.95-0.243 3.551 1.337l0.449 0.27c0.188 0.112 0.129 0.048 0.317 0.034 1.086-0.295 2.23-0.458 3.358-0.472 1.136 0.015 2.273 0.178 3.404 0.484l0.145 0.015c-0.013-0.002 0.040-0.009 0.127-0.062 3.248-1.968 3.132-1.324 4.003-1.608 0.032 0.188 0.883 1.987 0.182 4.099-0.095 0.291 2.816 2.956 1.203 7.235-0.659 1.746-2.32 3.957-6.487 4.578v0.001c0.534 0.814 1.176 1.247 1.173 2.927v6.608c6.988-1.688 12.25-8.501 12.25-16 0-8.788-7.212-16-16-16z"></path>
</symbol>
<symbol id="icon-telegram" viewBox="0 0 40 32">
<path d="M16.028 19.975l-0.623 8.409c0.891 0 1.277-0.367 1.74-0.809l4.177-3.832 8.656 6.085c1.588 0.849 2.706 0.402 3.134-1.402l5.683-25.559c0.504-2.253-0.849-3.134-2.395-2.581l-33.397 12.274c-2.279 0.849-2.245 2.069-0.387 2.622l8.538 2.549 19.833-11.913c0.933-0.593 1.782-0.265 1.084 0.328l-16.043 13.828z"></path>
</symbol>
<symbol id="icon-arrow" viewBox="0 0 82 32">
<path d="M81.414 17.414c0.781-0.781 0.781-2.047 0-2.828l-12.728-12.728c-0.781-0.781-2.047-0.781-2.828 0s-0.781 2.047 0 2.828l11.314 11.314-11.314 11.314c-0.781 0.781-0.781 2.047 0 2.828s2.047 0.781 2.828 0l12.728-12.728zM0 18h80v-4h-80v4z"></path>
</symbol>
<symbol id="icon-products-arrow" viewBox="0 0 82 32">
<path d="M81.414 17.414c0.781-0.781 0.781-2.047 0-2.828l-12.728-12.728c-0.781-0.781-2.047-0.781-2.828 0s-0.781 2.047 0 2.828l11.314 11.314-11.314 11.314c-0.781 0.781-0.781 2.047 0 2.828s2.047 0.781 2.828 0l12.728-12.728zM0 18h80v-4h-80v4z"></path>
</symbol>
<symbol id="icon-cow" viewBox="0 0 31 32">
<path d="M6.002 0.778c-0.254 0.219-0.979 1.733-1.24 2.559-0.31 1.024-0.416 1.791-0.373 2.852 0.056 1.514 0.437 2.661 1.275 3.861 0.218 0.314 0.394 0.585 0.394 0.607 0 0.015-0.134 0.029-0.303 0.029-0.726 0-2.085 0.241-3.128 0.556-1.655 0.497-2.627 1.367-2.627 2.34 0 0.344 0.31 0.929 0.641 1.228 0.641 0.578 2.043 1.126 3.55 1.389 0.521 0.095 2.071 0.256 2.416 0.263 0.063 0 0.085 0.336 0.085 1.44 0 0.951 0.035 1.689 0.106 2.142 0.254 1.623 1.043 3.341 2.085 4.555l0.359 0.417-0.24 0.387c-0.352 0.548-0.486 0.965-0.528 1.587-0.106 1.492 0.824 2.815 2.62 3.744 3.423 1.777 8.742 1.082 10.735-1.404 0.972-1.214 1.085-2.603 0.317-3.861l-0.239-0.388 0.43-0.519c0.803-0.965 1.324-1.93 1.719-3.151 0.331-1.038 0.458-2.040 0.458-3.627 0-0.724 0.021-1.323 0.056-1.323 0.324-0.007 1.881-0.175 2.374-0.263 1.515-0.263 2.888-0.804 3.55-1.389 0.331-0.3 0.641-0.885 0.641-1.228 0-1.082-1.099-1.96-3.142-2.486-0.669-0.175-1.93-0.387-2.543-0.424l-0.289-0.022 0.317-0.439c0.394-0.534 0.888-1.572 1.078-2.252 0.535-1.967 0.204-4.255-0.944-6.442-0.479-0.907-0.81-1.119-1.198-0.76-0.148 0.139-0.211 0.329-0.352 1.016-0.437 2.186-1.247 3.919-2.43 5.199l-0.521 0.57h-11.144l-0.465-0.505c-1.155-1.272-1.993-3.071-2.43-5.264-0.141-0.687-0.204-0.877-0.352-1.016-0.232-0.212-0.458-0.205-0.718 0.022zM6.903 5.114c0.373 0.819 0.838 1.587 1.388 2.296l0.437 0.563-0.458 0.344c-0.43 0.329-0.831 0.797-1.141 1.331l-0.134 0.241-0.338-0.461c-1.155-1.594-1.444-3.546-0.831-5.571 0.296-0.98 0.289-0.972 0.556-0.124 0.127 0.409 0.366 1.031 0.521 1.382zM25.239 3.571c0.289 0.87 0.402 1.565 0.402 2.464 0 1.331-0.352 2.457-1.092 3.466l-0.331 0.453-0.247-0.417c-0.289-0.512-0.782-1.046-1.233-1.353-0.19-0.124-0.338-0.249-0.338-0.263 0-0.022 0.134-0.19 0.303-0.373 0.782-0.87 1.62-2.435 2.036-3.78 0.127-0.417 0.254-0.76 0.275-0.76s0.127 0.256 0.225 0.563zM21.64 8.916c0.782 0.329 1.529 1.272 1.648 2.069 0.063 0.439 0.211 0.717 0.402 0.76 0.084 0.015 0.669 0.066 1.296 0.11 2.226 0.146 3.98 0.621 4.727 1.272 0.345 0.307 0.31 0.563-0.106 0.877-0.831 0.629-2.627 1.104-4.459 1.184-1.212 0.051-1.465 0.088-1.627 0.256-0.12 0.124-0.134 0.256-0.134 1.579 0 1.791-0.092 2.822-0.317 3.656-0.317 1.133-0.944 2.34-1.677 3.195l-0.303 0.351-0.627-0.373c-0.761-0.453-1.472-0.746-2.325-0.943-2.67-0.636-5.621-0.249-7.608 1.002l-0.458 0.293-0.289-0.344c-0.394-0.461-1.014-1.448-1.261-2.003-0.542-1.258-0.704-2.281-0.704-4.533 0-2.186 0.113-2.025-1.507-2.113-2.071-0.11-3.649-0.483-4.642-1.111-0.733-0.468-0.613-0.885 0.409-1.375 0.979-0.475 2.325-0.76 4.191-0.877 1.451-0.095 1.486-0.117 1.62-0.819 0.197-1.060 0.979-1.938 1.965-2.215 0.246-0.073 1.627-0.088 5.854-0.080l5.53 0.015 0.401 0.168zM17.681 24.051c1.726 0.424 3.015 1.214 3.571 2.193 0.134 0.227 0.19 0.461 0.218 0.819 0.028 0.446 0.007 0.556-0.162 0.921-0.782 1.66-3.656 2.756-6.579 2.508-3.515-0.293-5.826-2.252-4.917-4.175 0.493-1.038 2.163-2.033 3.924-2.325 0.289-0.044 0.578-0.095 0.634-0.11s0.69-0.015 1.409 0c0.979 0.022 1.451 0.066 1.902 0.168z"></path>
<path d="M10.693 12.579c-0.437 0.146-0.733 0.336-1.127 0.731-0.345 0.329-0.373 0.717-0.085 0.95 0.268 0.219 0.521 0.19 0.845-0.095 0.409-0.358 0.726-0.505 1.12-0.505 0.394-0.007 0.697 0.132 1.12 0.505 0.324 0.285 0.578 0.314 0.845 0.095 0.141-0.117 0.183-0.212 0.183-0.431 0-0.227-0.049-0.329-0.296-0.578-0.697-0.702-1.733-0.972-2.606-0.673zM18.906 12.571c-0.451 0.168-1.029 0.548-1.261 0.833-0.225 0.278-0.232 0.592 0 0.826 0.232 0.249 0.514 0.234 0.852-0.044 0.831-0.687 1.451-0.709 2.219-0.073 0.197 0.168 0.423 0.3 0.493 0.3 0.345 0 0.627-0.307 0.627-0.673 0-0.234-0.585-0.775-1.113-1.031-0.585-0.285-1.282-0.336-1.817-0.139zM11.714 26.106c-0.204 0.197-0.275 0.483-0.169 0.709 0.078 0.183 0.197 0.256 0.683 0.388 0.218 0.058 0.31 0.132 0.387 0.314 0.099 0.241 0.106 0.241 0.648 0.263l0.542 0.022v-0.205c-0.007-0.293-0.169-0.717-0.38-1.009-0.247-0.336-0.676-0.556-1.162-0.6-0.331-0.029-0.416-0.015-0.549 0.117zM18.442 26.054c-0.352 0.095-0.859 0.57-1 0.943-0.063 0.168-0.127 0.468-0.134 0.665-0.014 0.314 0.014 0.388 0.183 0.541 0.416 0.366 0.965 0.080 0.965-0.504 0-0.285 0.211-0.483 0.585-0.556 0.394-0.073 0.535-0.234 0.542-0.607 0-0.49-0.437-0.68-1.141-0.483z"></path>
</symbol>
<symbol id="icon-ice-crema" viewBox="0 0 32 32">
<path d="M16.108 0.107c0.080 0.214 0.241 1.252 0.241 1.573 0 0.797-0.295 1.54-0.837 2.122-0.449 0.482-0.897 0.75-1.975 1.185-1.198 0.489-1.694 0.783-2.256 1.339-0.569 0.569-0.904 1.192-1.024 1.921-0.134 0.797 0 1.359 0.408 1.68l0.208 0.161-0.328 0.208c-0.663 0.435-1.868 1.459-2.075 1.774-0.402 0.603-0.361 1.165 0.094 1.392l0.214 0.107-0.241 0.228c-0.361 0.341-0.435 0.576-0.382 1.192 0.033 0.408 0.020 0.629-0.074 0.964-0.114 0.435-0.114 0.442 0.033 0.75 0.147 0.301 0.562 0.683 0.937 0.843 0.181 0.080 0.187 0.107 0.228 0.723 0.020 0.355 0.053 1.486 0.080 2.517 0.020 1.031 0.067 1.975 0.107 2.089 0.033 0.121 0.161 0.281 0.274 0.361 0.388 0.268 0.656 0.556 0.83 0.89 0.194 0.382 0.408 1.319 1.058 4.559l0.455 2.276 0.281 0.268c0.536 0.529 1.56 0.77 3.247 0.77 1.694 0 2.705-0.234 3.24-0.763l0.288-0.274 0.415-2.109c0.917-4.613 0.997-4.867 1.714-5.436 0.221-0.181 0.435-0.402 0.475-0.502 0.047-0.114 0.094-0.991 0.127-2.316 0.027-1.178 0.067-2.343 0.094-2.591l0.040-0.449 0.435-0.328c0.549-0.422 0.763-0.803 0.763-1.393-0.007-0.696-0.462-1.459-1.292-2.142l-0.395-0.321 0.194-0.274c0.81-1.118 0.301-2.664-1.205-3.695l-0.455-0.315 0.167-0.174c0.743-0.797 0.864-3.173 0.241-4.827-0.375-0.984-1.232-2.055-2.283-2.845-0.515-0.388-1.935-1.245-2.062-1.245-0.027 0-0.027 0.047-0.007 0.107zM18.036 2.443c0.355 0.348 0.783 0.823 0.951 1.064 0.997 1.392 1.252 3.14 0.649 4.425-0.241 0.522-0.964 1.299-1.633 1.761-1.024 0.71-3.327 1.901-4.934 2.557-2.584 1.051-4.084 1.252-4.258 0.562-0.067-0.261 0.127-0.469 0.951-1.018 0.743-0.509 4.077-2.986 4.137-3.086 0.020-0.027-0.321 0.127-0.75 0.341-1.453 0.736-2.142 0.596-2.109-0.428 0.020-0.743 0.556-1.587 1.299-2.069 0.187-0.12 0.77-0.388 1.305-0.603 1.761-0.71 2.296-1.071 2.892-1.962 0.355-0.529 0.743-1.506 0.77-1.921 0.007-0.147 0.034-0.261 0.054-0.261s0.321 0.288 0.676 0.636zM19.864 10.049c0.489 0.274 0.997 0.743 1.218 1.111 0.388 0.663 0.187 1.325-0.649 2.169-0.91 0.924-2.464 1.808-4.171 2.37-1.573 0.515-3.079 0.756-5.235 0.83l-1.339 0.047 0.87 0.054c1.125 0.074 3.3 0.007 4.144-0.127 2.243-0.355 4.151-1.064 5.516-2.042 0.308-0.221 0.629-0.402 0.716-0.402 0.221 0 1.185 0.924 1.379 1.312 0.107 0.221 0.134 0.382 0.114 0.596-0.1 0.89-1.185 1.366-3.802 1.68-3.2 0.382-7.384 0.007-9.172-0.817-0.844-0.388-0.984-0.609-0.77-1.198 0.067-0.187 0.080-0.408 0.054-0.723-0.033-0.415-0.027-0.469 0.12-0.623 0.335-0.361 0.897-0.569 2.959-1.091 0.723-0.187 1.707-0.482 2.176-0.656 1.138-0.415 3.274-1.493 4.264-2.156 0.93-0.616 1.064-0.643 1.607-0.335zM10.974 18.243c1.406 0.408 2.651 0.529 4.967 0.482 1.741-0.034 2.812-0.141 4.358-0.415 0.315-0.053 0.589-0.1 0.623-0.1 0.074 0 0.053 2.571-0.027 3.247-0.087 0.716-0.281 1.272-0.489 1.406-0.214 0.141-1.285 0.288-2.718 0.368-2.939 0.161-5.958 0-6.895-0.375-0.509-0.207-0.562-0.475-0.569-2.959 0-1.654 0.013-1.881 0.1-1.848 0.053 0.020 0.348 0.107 0.649 0.194zM12.56 23.933c0.482 0.060 1.004 0.121 1.165 0.141l0.288 0.034-0.254 0.281c-0.328 0.355-0.83 1.064-1.011 1.426-0.207 0.415-0.274 0.442-0.582 0.274l-0.261-0.147-0.147-0.91c-0.080-0.495-0.167-0.971-0.187-1.051-0.060-0.174-0.12-0.174 0.991-0.047zM19.697 23.859c0 0.013-0.033 0.187-0.067 0.382-0.040 0.201-0.208 1.292-0.375 2.43-0.341 2.377-0.569 3.495-0.777 3.869-0.288 0.502-0.977 0.797-2.095 0.89-0.435 0.034-1.747-0.053-1.821-0.12-0.053-0.060 1.098-1.486 1.279-1.58 0.167-0.094 0.214-0.080 0.783 0.214 0.663 0.348 0.997 0.402 0.997 0.181s-0.174-0.435-0.602-0.73c-0.395-0.281-0.536-0.442-0.536-0.629 0-0.053 0.194-0.355 0.428-0.669s0.576-0.817 0.75-1.118l0.328-0.542 0.301 0.040c0.609 0.087 0.77 0.080 0.75-0.053-0.013-0.067-0.127-0.261-0.254-0.422-0.127-0.167-0.228-0.335-0.228-0.368 0-0.127 0.623-1.299 0.823-1.546 0.174-0.214 0.315-0.321 0.315-0.228zM15.513 24.395c0.335 0.221 1.593 1.312 1.674 1.446 0.034 0.060-1.259 2.082-1.513 2.37-0.027 0.034-0.167-0.033-0.308-0.141-0.141-0.114-0.663-0.475-1.165-0.803l-0.904-0.596 0.542-0.917c0.964-1.613 0.944-1.587 1.151-1.587 0.107 0 0.341 0.1 0.522 0.228zM18.050 24.636c-0.234 0.288-0.428 0.469-0.509 0.469-0.174 0-0.455-0.154-0.93-0.502l-0.395-0.288 0.79-0.047c0.428-0.020 0.844-0.047 0.917-0.060 0.536-0.087 0.536-0.080 0.127 0.428zM12.989 27.856c0.616 0.241 1.66 0.81 1.962 1.064 0.214 0.174 0.214 0.187 0.127 0.402-0.054 0.121-0.234 0.442-0.415 0.716-0.174 0.268-0.375 0.602-0.449 0.743-0.214 0.415-0.281 0.449-0.723 0.328-0.475-0.141-0.73-0.382-0.864-0.817-0.181-0.609-0.469-2.33-0.435-2.598 0.013-0.1 0.295-0.040 0.797 0.161z"></path>
</symbol>
<symbol id="icon-weight" viewBox="0 0 32 32">
<path d="M14.177 0.547c-3.974 0.589-7.247 2.796-8.451 5.685-0.384 0.913-0.488 1.473-0.488 2.573 0.007 0.812 0.037 1.114 0.162 1.552 0.259 0.863 0.443 1.301 0.827 1.919l0.355 0.575-0.399 0.489c-3.154 3.924-3.502 9.444-0.872 13.793 0.982 1.632 2.585 3.234 4.152 4.169l0.465 0.273 12.743-0.108 0.303-0.165c1.056-0.597 2.549-1.926 3.383-3.004 1.256-1.639 2.076-3.551 2.423-5.621 0.118-0.74 0.118-2.932-0.007-3.63-0.377-2.149-1.182-3.989-2.453-5.621-0.244-0.309-0.436-0.568-0.436-0.589 0-0.014 0.133-0.237 0.288-0.489 0.362-0.575 0.687-1.315 0.864-1.962 0.199-0.719 0.199-2.516 0-3.234-0.709-2.552-2.837-4.679-5.843-5.851-0.842-0.331-2.283-0.683-3.213-0.798-0.864-0.101-2.999-0.079-3.804 0.043zM18.676 1.718c3.945 0.769 6.833 3.184 7.365 6.16 0.118 0.668 0.044 1.804-0.155 2.437-0.199 0.618-0.569 1.344-1.005 1.962-0.177 0.252-0.325 0.539-0.325 0.633s0.155 0.338 0.377 0.582c1.847 2.048 2.822 4.614 2.822 7.389-0.007 3.155-1.219 5.922-3.553 8.093-0.399 0.374-0.968 0.841-1.271 1.042l-0.554 0.374-12.211 0.050-0.473-0.302c-1.714-1.114-3.258-2.954-4.115-4.909-1.079-2.472-1.189-5.34-0.31-7.913 0.465-1.337 1.086-2.429 2.031-3.579 0.384-0.46 0.561-0.733 0.561-0.863 0-0.108-0.192-0.46-0.443-0.827-0.886-1.287-1.248-2.717-1.034-4.068 0.222-1.366 0.842-2.487 1.987-3.601 1.492-1.445 3.575-2.401 6.020-2.76 1.012-0.151 3.25-0.093 4.285 0.101z"></path>
<path d="M14.51 2.983c-3.029 0.496-5.4 2.178-6.176 4.384-0.177 0.496-0.207 0.69-0.207 1.402s0.030 0.906 0.207 1.402c0.111 0.316 0.318 0.755 0.458 0.977 0.384 0.618 0.554 0.64 1.315 0.18 1.138-0.697 2.445-1.208 3.804-1.488 0.916-0.187 2.674-0.259 3.671-0.144 1.559 0.18 3.25 0.74 4.602 1.538 0.384 0.223 0.776 0.41 0.872 0.41 0.561 0 1.278-1.617 1.278-2.875 0-2.796-2.674-5.189-6.464-5.786-0.805-0.129-2.585-0.129-3.361 0zM18.166 4.133c1.271 0.273 2.438 0.791 3.317 1.473 1.182 0.913 1.817 2.185 1.714 3.414-0.037 0.489-0.222 1.15-0.332 1.222-0.029 0.014-0.443-0.158-0.916-0.388-0.983-0.474-2.098-0.855-3.228-1.1-0.687-0.144-0.975-0.165-2.512-0.158-1.514 0-1.832 0.022-2.489 0.158-1.138 0.244-2.024 0.546-3.117 1.064-1.101 0.525-1.042 0.532-1.241-0.115-0.258-0.841-0.096-1.955 0.406-2.796 0.266-0.446 0.997-1.186 1.529-1.553 1.012-0.697 1.899-1.013 3.804-1.358 0.391-0.072 2.563 0.029 3.066 0.137zM16.962 13.405c-0.207 0.259-0.207 0.503 0.007 0.712 0.14 0.137 0.281 0.173 0.79 0.208 0.99 0.072 1.935 0.359 2.785 0.848 0.606 0.359 1.529 1.229 1.943 1.854 0.613 0.898 1.034 2.185 1.034 3.134 0 0.331 0.029 0.431 0.185 0.575 0.236 0.237 0.547 0.237 0.776 0 0.163-0.165 0.17-0.208 0.125-0.913-0.207-3.479-3.184-6.382-6.744-6.577l-0.739-0.043-0.163 0.201z"></path>
</symbol>
<symbol id="icon-Arrow-4" viewBox="0 0 82 32">
<path d="M81.414 17.414c0.781-0.781 0.781-2.047 0-2.828l-12.728-12.728c-0.781-0.781-2.047-0.781-2.828 0s-0.781 2.047 0 2.828l11.314 11.314-11.314 11.314c-0.781 0.781-0.781 2.047 0 2.828s2.047 0.781 2.828 0l12.728-12.728zM0 18h80v-4h-80v4z"></path>
</symbol>
<symbol id="icon-Vector" viewBox="0 0 22 32">
<path d="M3.103 0.726c-0.434 0.434-0.703 1.034-0.703 1.697s0.269 1.263 0.703 1.697l11.88 11.88-11.88 11.88c-0.417 0.431-0.674 1.019-0.674 1.667 0 0.663 0.269 1.263 0.703 1.697v0c0.434 0.434 1.034 0.703 1.697 0.703 0.648 0 1.236-0.257 1.668-0.674l13.576-13.576c0.434-0.434 0.703-1.034 0.703-1.697s-0.269-1.262-0.703-1.697l-13.577-13.577c-0.434-0.434-1.034-0.703-1.697-0.703s-1.263 0.269-1.697 0.703v0z"></path>
</symbol>
<symbol id="icon-burger" viewBox="0 0 32 32">
<path d="M26.733 14.667h-21.467c-0.7 0-1.267 0.567-1.267 1.267v0.133c0 0.7 0.567 1.267 1.267 1.267h21.467c0.7 0 1.267-0.567 1.267-1.267v-0.133c0-0.7-0.567-1.267-1.267-1.267z"></path>
<path d="M26.733 21.333h-21.467c-0.7 0-1.267 0.567-1.267 1.267v0.133c0 0.7 0.567 1.267 1.267 1.267h21.467c0.7 0 1.267-0.567 1.267-1.267v-0.133c0-0.7-0.567-1.267-1.267-1.267z"></path>
<path d="M26.733 8h-21.467c-0.7 0-1.267 0.567-1.267 1.267v0.133c0 0.7 0.567 1.267 1.267 1.267h21.467c0.7 0 1.267-0.567 1.267-1.267v-0.133c0-0.7-0.567-1.267-1.267-1.267z"></path>
</symbol>
<symbol id="icon-page-logo" viewBox="0 0 34 32">
<path  d="M17.413 14.169c1.635-4.384-1.751-6.784-3.995-8.362-0.429-0.322-0.858-0.623-1.206-0.899-0.621-0.518-1.079-1.201-1.318-1.969s-0.251-1.587-0.033-2.361c0.022-0.081 0.022-0.166-0.002-0.247s-0.069-0.153-0.131-0.21-0.14-0.096-0.223-0.112c-0.083-0.017-0.169-0.010-0.249 0.018-0.756 0.295-1.458 0.709-2.081 1.225-0.598 0.456-1.083 1.041-1.417 1.711s-0.508 1.406-0.51 2.152c-0.423 0.33-0.797 0.716-1.111 1.149-0.577 0.778-0.866 1.729-0.819 2.693-0.687 0.624-1.199 1.413-1.486 2.291s-0.338 1.814-0.149 2.717c-0.273 0.163-0.485 0.411-0.602 0.704s-0.134 0.617-0.047 0.921c0.087 0.304 0.272 0.571 0.527 0.761s0.567 0.291 0.886 0.289h0.030v2.493c0 0.253 0.102 0.496 0.283 0.675s0.427 0.279 0.683 0.279h0.751l1.223 10.473c0.025 0.233 0.137 0.449 0.314 0.605s0.406 0.243 0.643 0.243h5.089c0.237-0.001 0.466-0.087 0.644-0.244s0.29-0.372 0.317-0.605l1.223-10.473h0.751c0.256 0 0.502-0.1 0.683-0.279s0.283-0.422 0.283-0.675v-2.493h0.030c0.388 0 0.76-0.152 1.035-0.423s0.428-0.639 0.428-1.022c0.002-0.191-0.035-0.381-0.109-0.558s-0.183-0.338-0.32-0.472l-0.013 0.004zM6.399 6.214c0.618 2.294 3.003 3.197 5.179 4.003 0.059 0.036 0.124 0.058 0.192 0.066s0.137 0 0.202-0.021c0.065-0.022 0.124-0.057 0.174-0.104s0.088-0.104 0.113-0.168c0.025-0.063 0.035-0.131 0.030-0.199s-0.025-0.133-0.058-0.193c-0.034-0.059-0.080-0.11-0.136-0.15s-0.12-0.066-0.187-0.079c-2.343-0.878-4.552-1.696-4.72-4.041-0.039-0.645 0.083-1.289 0.356-1.875s0.689-1.097 1.21-1.487c0.326-0.268 0.677-0.507 1.047-0.712-0.024 0.294-0.024 0.588 0 0.882 0.050 0.672 0.236 1.327 0.547 1.927s0.741 1.131 1.264 1.563c0.356 0.301 0.798 0.611 1.287 0.941 1.128 0.801 2.411 1.696 3.226 2.909 0.435 0.622 0.706 1.341 0.787 2.093s-0.028 1.512-0.32 2.211h-1.896c-3.909 0-8.401-1.069-9.289-4.062-0.176-0.616-0.175-1.268 0.004-1.883s0.528-1.169 1.008-1.598l-0.021-0.021zM9.917 20.669l1.433 1.416-1.433 1.416-1.433-1.425 1.433-1.408zM13.204 24.388l-1.184 1.17-1.433-1.416 1.433-1.412 1.244 1.225-0.060 0.433zM9.917 27.636l-1.433-1.416 1.433-1.416 1.433 1.416-1.433 1.416zM9.261 24.15l-1.433 1.416-1.193-1.179-0.051-0.424 1.244-1.225 1.433 1.412zM7.167 26.219l-0.287 0.284-0.073-0.644 0.36 0.36zM7.017 27.67l0.811-0.801 1.575 1.569c0.008 0.032 0.018 0.063 0.030 0.093h-2.317l-0.099-0.861zM12.011 26.868l0.811 0.801-0.099 0.848h-2.381l1.669-1.649zM12.955 26.504l-0.287-0.284 0.365-0.36-0.077 0.644zM13.384 22.798l-0.716-0.721 0.91-0.899-0.193 1.62zM12.007 21.432l-1.36-1.34h2.72l-1.36 1.34zM7.823 21.432l-1.36-1.34h2.72l-1.36 1.34zM12.457 30.489h-5.084c-0.008-0.001-0.015-0.004-0.020-0.010s-0.009-0.012-0.010-0.020l-0.12-1.018h5.389l-0.116 1.018c-0.001 0.008-0.005 0.016-0.011 0.021s-0.014 0.008-0.023 0.008h-0.004zM16.391 15.716h-1.493c-0.065-0.006-0.13 0.001-0.192 0.021s-0.119 0.053-0.167 0.097c-0.048 0.043-0.087 0.096-0.113 0.155s-0.040 0.123-0.040 0.187 0.014 0.128 0.040 0.187c0.026 0.059 0.065 0.112 0.113 0.155s0.105 0.076 0.167 0.096 0.127 0.028 0.192 0.021h0.532v2.493c-0.001 0.008-0.005 0.016-0.011 0.021s-0.014 0.008-0.023 0.008h-10.971c-0.008 0-0.017-0.003-0.023-0.008s-0.010-0.013-0.011-0.021v-2.493h8.5c0.116-0.011 0.223-0.064 0.301-0.149s0.122-0.196 0.122-0.311-0.043-0.226-0.122-0.311c-0.078-0.085-0.186-0.138-0.301-0.149h-9.439c-0.074 0.007-0.148-0.002-0.218-0.025s-0.134-0.061-0.189-0.11-0.098-0.109-0.128-0.176c-0.030-0.067-0.045-0.139-0.045-0.212s0.015-0.145 0.045-0.212c0.030-0.067 0.073-0.127 0.128-0.176s0.119-0.087 0.189-0.11 0.144-0.032 0.218-0.025h0.974c0.116-0.011 0.223-0.064 0.301-0.149s0.122-0.196 0.122-0.311c0-0.115-0.043-0.226-0.122-0.311s-0.186-0.138-0.301-0.149h-0.858c-0.123-0.645-0.103-1.309 0.059-1.946s0.461-1.232 0.877-1.743c0.3 0.924 1.073 2.188 3.003 3.193 1.815 0.937 4.218 1.416 7.139 1.416h1.716c0.074-0.007 0.148 0.002 0.218 0.025s0.134 0.061 0.189 0.11c0.055 0.049 0.098 0.109 0.128 0.176s0.045 0.139 0.045 0.212c0 0.073-0.015 0.145-0.045 0.212s-0.073 0.127-0.128 0.176-0.119 0.087-0.189 0.11c-0.070 0.023-0.144 0.032-0.218 0.025h0.030z"></path>
<path  d="M19.817 27.915l-0.343 0.527 0.007 0.004 0.337-0.531zM23.514 28.093l0.629-0.014-0.016-0.728-0.718 0.122 0.105 0.62zM23.557 30.028l0.16 0.608 0.48-0.126-0.011-0.496-0.629 0.014zM18.705 30.12l0.141-0.613-0.004-0.001-0.137 0.614zM16.31 29.051l0.407-0.48-0.001-0.001-0.406 0.48zM15.444 27.086l0.629 0.003v-0.003h-0.629zM15.745 25.71l-0.564-0.278-0 0.001 0.565 0.277zM17.674 24.064l0.223 0.588 0.002-0.001-0.225-0.587zM23.852 23.905l0.627 0.049 0.041-0.531-0.517-0.128-0.151 0.61zM23.698 25.876l-0.117 0.618 0.69 0.131 0.055-0.7-0.627-0.049zM22.022 25.069c-0.944 0-1.737 0.101-2.317 0.356-0.297 0.131-0.567 0.314-0.764 0.574-0.203 0.268-0.3 0.58-0.3 0.909h1.258c0-0.074 0.018-0.115 0.044-0.149 0.033-0.043 0.106-0.111 0.268-0.182 0.338-0.148 0.92-0.249 1.81-0.249v-1.258zM18.642 26.908c0 0.647 0.29 1.181 0.832 1.534l0.687-1.054c-0.187-0.122-0.261-0.259-0.261-0.48h-1.258zM19.481 28.446c0.514 0.325 1.191 0.448 1.952 0.448v-1.258c-0.656 0-1.056-0.111-1.279-0.253l-0.673 1.063zM21.432 28.894c0.746 0 1.476-0.060 2.187-0.181l-0.21-1.24c-0.639 0.108-1.298 0.163-1.977 0.163v1.258zM22.885 28.107l0.043 1.934 1.257-0.028-0.043-1.934-1.257 0.028zM23.397 29.42c-0.719 0.189-1.512 0.286-2.383 0.286v1.258c0.964 0 1.866-0.108 2.703-0.328l-0.32-1.216zM21.015 29.706c-0.888 0-1.607-0.070-2.168-0.199l-0.282 1.226c0.684 0.157 1.504 0.231 2.45 0.231v-1.258zM18.843 29.506c-0.6-0.134-1.034-0.277-1.323-0.418l-0.552 1.13c0.415 0.203 0.956 0.371 1.6 0.515l0.275-1.227zM17.52 29.088c-0.31-0.151-0.576-0.324-0.803-0.516l-0.814 0.959c0.314 0.267 0.67 0.495 1.064 0.687l0.552-1.13zM16.716 28.571c-0.427-0.361-0.646-0.833-0.643-1.482l-1.258-0.006c-0.005 0.989 0.353 1.827 1.089 2.449l0.812-0.961zM16.073 27.086c0-0.423 0.083-0.785 0.237-1.099l-1.129-0.553c-0.247 0.505-0.365 1.060-0.365 1.652h1.258zM16.31 25.988c0.286-0.582 0.791-1.033 1.587-1.336l-0.446-1.176c-1.038 0.394-1.819 1.040-2.27 1.956l1.129 0.555zM17.899 24.652c0.837-0.321 1.77-0.486 2.808-0.486v-1.258c-1.173 0-2.262 0.187-3.259 0.57l0.451 1.174zM20.708 24.165c1.059 0 2.056 0.118 2.993 0.35l0.303-1.221c-1.044-0.259-2.143-0.387-3.296-0.387v1.258zM23.225 23.856l-0.154 1.971 1.254 0.098 0.154-1.971-1.254-0.098zM23.816 25.258c-0.654-0.124-1.254-0.189-1.794-0.189v1.258c0.442 0 0.961 0.054 1.56 0.167l0.234-1.236zM29.952 26.263l-0.003 0.629 0.639 0.004-0.007-0.639-0.629 0.007zM29.681 25.446l-0.428 0.461 0.005 0.005 0.422-0.466zM28.115 25.508l0.436 0.454 0.005-0.005-0.44-0.449zM27.735 26.251l-0.62-0.102-0.119 0.727 0.736 0.004 0.003-0.629zM32.359 29.604l0.38 0.501 0.226-0.171 0.021-0.283-0.627-0.047zM31.002 30.108l-0.135-0.614-0.004 0.001 0.139 0.613zM26.285 29.936l-0.214 0.591 0.005 0.002 0.209-0.593zM25.211 29.365l-0.39 0.493 0.008 0.006 0.383-0.499zM24.492 28.462l-0.564 0.279 0.001 0.003 0.563-0.281zM25.229 24.648l0.418 0.47 0-0-0.419-0.469zM30.977 23.966l0.252-0.576-0.006-0.003-0.246 0.579zM32.421 25.293l-0.566 0.275 0.002 0.004 0.564-0.278zM32.666 26.392l0.627 0.046 0.002-0.023v-0.023h-0.629zM32.593 27.405l-0.003 0.629 0.588 0.003 0.043-0.586-0.627-0.046zM27.612 27.381l0.003-0.629-0.82-0.004 0.209 0.793 0.608-0.16zM28.324 28.259l-0.309 0.547 0.003 0.001 0.307-0.549zM32.144 28.044v-0.629h-0.126l-0.116 0.048 0.242 0.581zM32.476 28.044l0.627 0.047 0.051-0.676h-0.678v0.629zM30.581 26.256c-0.005-0.455-0.109-0.943-0.477-1.276l-0.845 0.932c-0.007-0.007 0.007 0.001 0.025 0.056 0.019 0.058 0.037 0.154 0.039 0.302l1.258-0.013zM30.109 24.985c-0.33-0.306-0.763-0.408-1.189-0.408v1.258c0.245 0 0.32 0.059 0.334 0.071l0.856-0.922zM28.92 24.578c-0.468 0-0.904 0.147-1.245 0.481l0.88 0.898c0.069-0.067 0.169-0.121 0.364-0.121v-1.258zM27.68 25.054c-0.31 0.297-0.496 0.671-0.566 1.095l1.241 0.204c0.029-0.174 0.096-0.296 0.196-0.391l-0.871-0.907zM27.731 26.88l2.217 0.012 0.007-1.258-2.217-0.012-0.007 1.258zM31.979 29.103c-0.138 0.105-0.474 0.25-1.113 0.391l0.27 1.228c0.664-0.146 1.232-0.336 1.602-0.617l-0.76-1.002zM30.863 29.494c-0.609 0.138-1.195 0.206-1.759 0.206v1.258c0.665 0 1.344-0.080 2.037-0.237l-0.278-1.227zM29.104 29.7c-0.593 0-1.081-0.028-1.47-0.080l-0.168 1.247c0.462 0.062 1.010 0.092 1.638 0.092v-1.258zM27.634 29.619c-0.382-0.051-0.762-0.143-1.14-0.277l-0.419 1.186c0.457 0.161 0.921 0.274 1.391 0.337l0.168-1.247zM26.5 29.345c-0.368-0.133-0.667-0.295-0.906-0.479l-0.765 0.998c0.358 0.275 0.775 0.494 1.243 0.663l0.429-1.182zM25.601 28.871c-0.216-0.171-0.399-0.397-0.546-0.691l-1.125 0.563c0.221 0.443 0.517 0.819 0.891 1.115l0.781-0.986zM25.056 28.183c-0.132-0.268-0.211-0.612-0.211-1.054h-1.258c0 0.59 0.105 1.134 0.342 1.611l1.127-0.558zM24.844 27.129c0-0.442 0.080-0.833 0.231-1.181l-1.154-0.501c-0.226 0.521-0.334 1.084-0.334 1.681h1.258zM25.075 25.948c0.159-0.365 0.353-0.636 0.572-0.831l-0.836-0.939c-0.378 0.337-0.671 0.767-0.89 1.269l1.154 0.501zM25.647 25.117c0.676-0.603 1.707-0.952 3.193-0.952v-1.258c-1.667 0-3.043 0.392-4.030 1.271l0.837 0.939zM28.84 24.165c0.667 0 1.295 0.127 1.892 0.38l0.491-1.158c-0.755-0.32-1.551-0.48-2.383-0.48v1.258zM30.726 24.543c0.556 0.243 0.916 0.587 1.129 1.025l1.131-0.55c-0.36-0.741-0.963-1.281-1.757-1.628l-0.503 1.153zM31.857 25.571c0.117 0.238 0.181 0.508 0.181 0.821h1.258c0-0.489-0.101-0.952-0.311-1.378l-1.128 0.557zM32.039 26.346l-0.074 1.013 1.254 0.091 0.074-1.013-1.254-0.091zM32.596 26.777l-4.981-0.025-0.006 1.258 4.981 0.025 0.006-1.258zM27.004 27.541c0.147 0.558 0.507 0.98 1.011 1.265l0.619-1.095c-0.249-0.141-0.364-0.303-0.414-0.491l-1.216 0.321zM28.017 28.808c0.51 0.285 1.148 0.399 1.861 0.399v-1.258c-0.597 0-0.995-0.099-1.247-0.239l-0.614 1.098zM29.878 29.207c0.765 0 1.605-0.207 2.508-0.583l-0.483-1.161c-0.809 0.337-1.479 0.486-2.024 0.486v1.258zM32.144 28.673h0.332v-1.258h-0.332v1.258zM31.849 27.997l-0.117 1.56 1.254 0.094 0.117-1.56-1.254-0.094z"></path>
</symbol>
<symbol id="icon-close" viewBox="0 0 32 32">
<path  d="M23.884 6.706l-7.884 7.884-7.884-7.884c-0.19-0.174-0.439-0.267-0.696-0.261s-0.502 0.11-0.684 0.292c-0.182 0.182-0.286 0.427-0.292 0.684s0.088 0.506 0.261 0.696l7.88 7.884-7.882 7.882c-0.096 0.092-0.173 0.202-0.226 0.324s-0.081 0.253-0.083 0.386 0.023 0.265 0.073 0.388c0.050 0.123 0.124 0.235 0.218 0.329s0.206 0.169 0.329 0.219 0.255 0.075 0.388 0.074c0.133-0.002 0.264-0.029 0.386-0.082s0.232-0.13 0.324-0.226l7.886-7.882 7.884 7.884c0.19 0.174 0.439 0.267 0.696 0.262s0.502-0.11 0.684-0.292c0.182-0.182 0.286-0.427 0.292-0.684s-0.088-0.506-0.262-0.696l-7.884-7.884 7.884-7.886c0.096-0.092 0.173-0.202 0.226-0.324s0.081-0.253 0.083-0.386c0.002-0.133-0.023-0.265-0.073-0.388s-0.124-0.235-0.218-0.329c-0.094-0.094-0.206-0.169-0.329-0.219s-0.255-0.075-0.388-0.074-0.264 0.029-0.386 0.082c-0.122 0.053-0.232 0.13-0.324 0.226v0.002z"></path>
</symbol>
</defs>
</svg>
